<svg width="34" height="54" viewBox="0 0 34 54" fill="none" xmlns="http://www.w3.org/2000/svg">
<path d="M20.1485 0.671175C20.1485 0.749472 20.1537 0.822551 20.1537 0.900848C20.1537 3.42202 20.1537 5.94841 20.1537 8.46958C20.1537 8.68185 20.051 8.78798 19.8457 8.78798C18.1493 8.78798 16.4581 8.78798 14.7616 8.78798C13.2374 8.78798 11.8594 9.23167 10.6641 10.1817C9.23385 11.3144 8.4039 12.7916 8.18466 14.6133C8.14812 14.9056 8.14813 15.1979 8.14813 15.4902C8.14813 16.7586 8.14813 18.0271 8.14813 19.2955C8.14813 19.5512 8.14813 19.5512 8.4039 19.5512C11.4001 19.5512 14.3962 19.5356 17.3872 19.5565C20.2059 19.5773 22.8158 20.3655 25.2013 21.8584C27.3988 23.2312 29.137 25.0581 30.4106 27.3183C31.4024 29.0826 32.0183 30.9722 32.248 32.987C32.3263 33.6865 32.3576 34.3807 32.3576 35.0854C32.3576 36.7871 32.3576 38.4887 32.3576 40.1904C32.3576 40.3887 32.2619 40.4879 32.0705 40.4879C29.5389 40.4879 27.0125 40.4879 24.4809 40.4879C24.2095 40.4879 24.2043 40.4879 24.2043 40.2113C24.2043 38.2956 24.2304 36.3747 24.1938 34.459C24.1625 32.7313 23.5048 31.2332 22.3408 29.9648C21.1455 28.6703 19.6526 27.929 17.8987 27.7255C17.6377 27.6941 17.3768 27.6837 17.1158 27.6837C14.2188 27.6837 11.3166 27.6837 8.41956 27.6837C8.23861 27.6837 8.14813 27.7759 8.14813 27.9604C8.14813 31.9901 8.14813 36.0145 8.14813 40.0442C8.14813 40.1069 8.14813 40.1695 8.14813 40.2374C8.14813 40.4931 8.14813 40.4984 7.89235 40.4984C7.56351 40.4984 7.22944 40.4984 6.90059 40.4984C4.69783 40.4984 2.48985 40.4984 0.287091 40.4984C0.193135 40.4984 0.0939566 40.4931 0 40.4879C0 31.8857 0 23.2834 0 14.6759C0.0365387 14.3262 0.0626362 13.9817 0.104395 13.632C0.287088 12.0295 0.725555 10.5001 1.41979 9.04897C2.43765 6.91929 3.88354 5.13412 5.75745 3.69867C7.69922 2.21102 9.88111 1.26623 12.2927 0.859089C12.7572 0.780791 13.227 0.744253 13.6916 0.681615C15.8474 0.681615 17.9979 0.681615 20.1537 0.681615L20.1485 0.671175Z" fill="white"/>
<path d="M33.1151 13.3242C32.7183 13.3242 32.3269 13.3347 31.9302 13.3347C30.9436 13.3347 29.9571 13.3399 28.9705 13.3347C26.6999 13.319 24.7686 11.5808 24.4971 9.33109C24.4763 9.15361 24.4658 8.97614 24.4658 8.79867C24.4658 7.51981 24.4658 6.23574 24.4658 4.95688C24.4658 4.76375 24.518 4.70633 24.7164 4.70633C25.9952 4.71155 27.2793 4.70633 28.5582 4.70633C30.6617 4.70633 32.4835 6.147 32.9846 8.19317C33.0681 8.53767 33.0837 8.88218 33.1255 9.23191V13.3242H33.1151Z" fill="white"/>
<path d="M8.37226 53.3181C8.13737 53.2711 7.89726 53.245 7.66759 53.1615C6.99423 52.9161 6.61319 52.3681 6.60797 51.6164C6.60275 50.8491 6.95247 50.3271 7.62583 50.0505C8.18435 49.826 8.77941 49.7999 9.36403 49.7164C9.58326 49.6851 9.80249 49.6485 10.0217 49.5911C10.2253 49.5389 10.3819 49.4189 10.3975 49.184C10.4184 48.9125 10.4184 48.6255 10.1261 48.4845C9.70853 48.2809 9.27529 48.2862 8.84726 48.448C8.60715 48.5419 8.47144 48.7559 8.42968 49.0065C8.40358 49.1474 8.34616 49.1996 8.20523 49.1996C7.8033 49.1944 7.40138 49.1944 6.99945 49.1996C6.81676 49.1996 6.78544 49.1266 6.81154 48.9647C6.92638 48.2183 7.35962 47.7433 8.04863 47.498C9.07172 47.1326 10.1 47.1326 11.1127 47.5136C11.7077 47.7381 12.0157 48.1974 12.0157 48.8447C12.0157 49.7947 12.0157 50.7447 12.0157 51.6947C12.0157 52.1488 12.0157 52.5977 12.1671 53.0362C12.2036 53.1354 12.1514 53.1667 12.0679 53.1667C11.6138 53.1667 11.1649 53.1667 10.7107 53.1667C10.6324 53.1667 10.5802 53.1249 10.5594 53.0466C10.5489 52.9997 10.5333 52.9475 10.5228 52.9005C10.4654 52.6604 10.4706 52.6656 10.2671 52.817C9.89645 53.0988 9.46843 53.2346 9.0143 53.292C8.95166 53.2972 8.88381 53.292 8.82639 53.3233H8.36704L8.37226 53.3181ZM10.4028 50.9378C10.4028 50.7917 10.4028 50.6821 10.4028 50.5777C10.4028 50.4472 10.3506 50.4263 10.2357 50.468C10.0165 50.5516 9.78161 50.5881 9.54672 50.6246C9.21265 50.6768 8.87858 50.7186 8.57061 50.8752C8.25743 51.037 8.20001 51.3084 8.2261 51.6164C8.2522 51.8983 8.41402 52.0705 8.67501 52.1488C8.96732 52.2376 9.26485 52.2271 9.56238 52.1749C9.99563 52.0914 10.2514 51.82 10.3558 51.3972C10.3975 51.2354 10.3923 51.0683 10.3975 50.9431L10.4028 50.9378Z" fill="white"/>
<path d="M15.3724 53.3184C15.0696 53.2714 14.7669 53.2505 14.4693 53.167C13.5976 52.9269 13.0496 52.311 12.9399 51.4601C12.9191 51.3088 12.9556 51.2461 13.1122 51.2513C13.4985 51.2513 13.8899 51.2513 14.2762 51.2513C14.3597 51.2513 14.4485 51.2513 14.4589 51.3714C14.5111 51.8673 14.8452 52.0865 15.2784 52.1752C15.6229 52.2483 15.9726 52.2379 16.3015 52.0656C16.5312 51.9456 16.646 51.7629 16.6512 51.5175C16.6512 51.267 16.4842 51.1261 16.2754 51.0321C15.8422 50.839 15.3776 50.7502 14.9182 50.6511C14.5581 50.5728 14.1979 50.4788 13.8691 50.3118C13.2114 49.9829 12.9608 49.4818 13.0809 48.7615C13.1853 48.1351 13.5298 47.6966 14.1301 47.4879C15.1479 47.1329 16.1658 47.1225 17.1575 47.5922C17.7004 47.8532 17.9823 48.3074 18.0867 48.892C18.1128 49.0434 18.071 49.1217 17.904 49.1164C17.5229 49.1112 17.1419 49.1164 16.7556 49.1164C16.646 49.1164 16.5729 49.0799 16.5521 48.9651C16.4946 48.631 16.2702 48.4587 15.9622 48.3909C15.6542 48.323 15.3411 48.3178 15.0331 48.4013C14.7982 48.464 14.6938 48.5997 14.6781 48.798C14.6573 49.0225 14.7512 49.1738 14.9548 49.273C15.3567 49.4766 15.8056 49.5392 16.2389 49.6384C16.7347 49.748 17.215 49.8837 17.6534 50.15C18.1337 50.437 18.2798 50.8755 18.2589 51.4027C18.2224 52.4728 17.5751 52.9687 16.5625 53.2192C16.3485 53.2714 16.124 53.2923 15.9048 53.3288H15.3672L15.3724 53.3184Z" fill="white"/>
<path d="M1.91565 48.099C2.2706 47.6971 2.66731 47.41 3.17363 47.3004C3.72693 47.1804 4.26457 47.2534 4.78133 47.4779C5.12062 47.624 5.32419 47.9111 5.47035 48.24C5.63216 48.621 5.70002 49.023 5.70524 49.4301C5.71046 50.6046 5.70524 51.7738 5.71046 52.9483C5.71046 53.1153 5.65826 53.1779 5.49123 53.1727C5.09452 53.1675 4.70304 53.1623 4.30633 53.1727C4.13408 53.1727 4.0871 53.1048 4.09232 52.943C4.09232 51.8782 4.09232 50.8133 4.09232 49.7485C4.09232 49.5554 4.061 49.3675 4.01402 49.1848C3.88353 48.668 3.52336 48.5114 3.05358 48.5271C2.21841 48.5584 1.95741 49.0647 1.93653 49.8529C1.90522 50.8499 1.9261 51.8521 1.9261 52.8543C1.9261 53.0631 1.81996 53.1675 1.60769 53.1675C1.2423 53.1675 0.882132 53.1675 0.516745 53.1675C0.36537 53.1675 0.302734 53.1153 0.302734 52.9587C0.302734 50.448 0.302734 47.9372 0.302734 45.4265C0.302734 45.2699 0.354933 45.2073 0.511528 45.2125C0.908233 45.2177 1.29972 45.2229 1.69642 45.2125C1.8739 45.2125 1.9261 45.2751 1.9261 45.4474C1.92088 46.2617 1.9261 47.0812 1.9261 47.8955C1.9261 47.9633 1.9261 48.0312 1.9261 48.099H1.91565Z" fill="white"/>
<path d="M20.801 48.1196C21.0098 47.8169 21.2812 47.5872 21.6101 47.4411C22.3095 47.1279 23.009 47.1853 23.6771 47.5141C24.1939 47.7699 24.3661 48.2762 24.4705 48.7982C24.528 49.0957 24.5488 49.4037 24.5488 49.7117C24.5488 50.7765 24.5488 51.8414 24.5488 52.9062C24.5488 53.162 24.5332 53.1724 24.2774 53.1724C23.9016 53.1724 23.5258 53.1724 23.1499 53.1724C22.9829 53.1724 22.9307 53.115 22.9307 52.948C22.9359 51.9405 22.9307 50.9331 22.9307 49.9257C22.9307 49.6751 22.915 49.4298 22.8472 49.1897C22.701 48.6625 22.3774 48.5059 21.8711 48.5268C21.1038 48.5581 20.801 49.0018 20.7749 49.7743C20.7384 50.7504 20.7645 51.7213 20.7593 52.6974C20.7593 52.7757 20.754 52.8488 20.7593 52.9271C20.7749 53.1098 20.6966 53.1724 20.5139 53.1724C20.1277 53.162 19.7362 53.1672 19.3499 53.1724C19.1933 53.1724 19.1411 53.1202 19.1411 52.9584C19.1411 50.4477 19.1411 47.9369 19.1411 45.4262C19.1411 45.2696 19.1933 45.2122 19.3499 45.2122C19.731 45.2174 20.112 45.2122 20.4983 45.2122C20.7436 45.2122 20.7593 45.2279 20.7593 45.468C20.7593 46.277 20.7593 47.0861 20.7593 47.8952C20.7593 47.963 20.7384 48.0361 20.7958 48.1144L20.801 48.1196Z" fill="white"/>
<path d="M30.5882 50.0963C30.5882 50.54 30.5829 50.9889 30.5882 51.4326C30.5986 51.8084 30.7291 51.9285 31.1101 51.9337C31.2667 51.9337 31.4286 51.9337 31.5851 51.9232C31.6895 51.9128 31.7261 51.9493 31.7313 52.0433C31.7313 52.3669 31.7313 52.6958 31.7313 53.0194C31.7313 53.1186 31.6895 53.1708 31.5851 53.1812C31.0057 53.2282 30.4263 53.2699 29.8574 53.1081C29.2571 52.9411 28.97 52.5601 28.97 51.9337C28.97 50.8688 28.9648 49.804 28.97 48.7391C28.97 48.546 28.9126 48.4729 28.7195 48.4886C28.5472 48.5043 28.375 48.4886 28.2027 48.4886C28.067 48.4886 28.0044 48.4364 28.0096 48.2955C28.0148 48.0554 28.0148 47.81 28.0096 47.5699C28.0096 47.4238 28.0774 47.382 28.2079 47.382C28.4011 47.382 28.589 47.382 28.7821 47.382C28.923 47.382 28.97 47.3298 28.97 47.1889C28.9648 46.7556 28.97 46.3224 28.97 45.8891C28.97 45.7273 29.017 45.6595 29.184 45.6595C29.5807 45.6647 29.9722 45.6647 30.3689 45.6595C30.5412 45.6595 30.5882 45.7273 30.5882 45.8891C30.5829 46.3119 30.5882 46.7295 30.5882 47.1523C30.5882 47.3298 30.6508 47.3924 30.8231 47.382C31.0632 47.3716 31.3085 47.382 31.5486 47.382C31.6843 47.382 31.7417 47.4394 31.7417 47.5751C31.7417 47.8152 31.7417 48.0606 31.7417 48.3007C31.7417 48.4312 31.6843 48.4834 31.5591 48.4834C31.3085 48.4834 31.0632 48.4886 30.8126 48.4834C30.6456 48.4782 30.5882 48.5408 30.5882 48.7078C30.5934 49.1672 30.5882 49.6265 30.5882 50.0859V50.0963Z" fill="white"/>
<path d="M27.3467 50.2921C27.3467 51.1691 27.3467 52.0512 27.3467 52.9281C27.3467 53.1108 27.2892 53.1735 27.1065 53.1683C26.7203 53.1578 26.3288 53.163 25.9425 53.1683C25.7859 53.1683 25.7285 53.1108 25.7285 52.9542C25.7285 51.1691 25.7285 49.3891 25.7285 47.6039C25.7285 47.4473 25.7912 47.3899 25.9425 47.3899C26.3392 47.3951 26.7307 47.3951 27.1274 47.3899C27.2945 47.3899 27.3467 47.4526 27.3467 47.6144C27.3414 48.507 27.3467 49.3996 27.3467 50.2921Z" fill="white"/>
<path d="M26.5532 46.5589C26.3445 46.5589 26.1304 46.5589 25.9217 46.5589C25.7964 46.5589 25.7285 46.5224 25.7285 46.3866C25.7285 46.0578 25.7285 45.7237 25.7285 45.3949C25.7285 45.2644 25.7912 45.2122 25.9164 45.2122C26.3392 45.2122 26.7568 45.2122 27.1796 45.2122C27.2997 45.2122 27.3519 45.2644 27.3467 45.3844C27.3467 45.7133 27.3467 46.0474 27.3467 46.3762C27.3467 46.5119 27.2892 46.5589 27.164 46.5537C26.9604 46.5537 26.7568 46.5537 26.5532 46.5537V46.5589Z" fill="white"/>
</svg>
