<svg width="38" height="40" viewBox="0 0 38 40" fill="none" xmlns="http://www.w3.org/2000/svg">
<path d="M19.9999 0.818115C16.5302 0.818753 13.1257 1.76125 10.1497 3.54508C7.1736 5.3289 4.73758 7.88714 3.10146 10.9469C1.46534 14.0067 0.690488 17.4532 0.859566 20.9188C1.02864 24.3844 2.13531 27.7391 4.06151 30.625C5.9877 33.511 8.66118 35.82 11.7968 37.3056C14.9323 38.7913 18.4124 39.3979 21.8657 39.0608C25.319 38.7236 28.616 37.4554 31.4051 35.3914C34.1941 33.3274 36.3706 30.545 37.7023 27.3409C38.3559 25.7693 36.7899 24.1899 35.2144 24.8301C32.5142 25.9239 29.516 26.0368 26.7412 25.1491C23.9663 24.2614 21.5903 22.4293 20.0263 19.9714C18.4622 17.5135 17.8091 14.5851 18.1803 11.6955C18.5516 8.80588 19.9238 6.13776 22.0584 4.15503L22.206 4.0017C23.2621 2.7942 22.4226 0.833449 20.7532 0.833449H20.2434L20.113 0.821949L19.998 0.818115H19.9999Z" fill="#222737"/>
<path d="M19.9999 0.818115C16.5302 0.818753 13.1257 1.76125 10.1497 3.54508C7.1736 5.3289 4.73758 7.88714 3.10146 10.9469C1.46534 14.0067 0.690488 17.4532 0.859566 20.9188C1.02864 24.3844 2.13531 27.7391 4.06151 30.625C5.9877 33.511 8.66118 35.82 11.7968 37.3056C14.9323 38.7913 18.4124 39.3979 21.8657 39.0608C25.319 38.7236 28.616 37.4554 31.4051 35.3914C34.1941 33.3274 36.3706 30.545 37.7023 27.3409C38.3559 25.7693 36.7899 24.1899 35.2144 24.8301C32.5142 25.9239 29.516 26.0368 26.7412 25.1491C23.9663 24.2614 21.5903 22.4293 20.0263 19.9714C18.4622 17.5135 17.8091 14.5851 18.1803 11.6955C18.5516 8.80588 19.9238 6.13776 22.0584 4.15503L22.206 4.0017C23.2621 2.7942 22.4226 0.833449 20.7532 0.833449H20.2434L20.113 0.821949L19.998 0.818115H19.9999Z" fill="white" fill-opacity="0.95"/>
</svg>
